<?xml version="1.0" standalone="no"?>
<!DOCTYPE svg PUBLIC "-//W3C//DTD SVG 1.1//EN" "http://www.w3.org/Graphics/SVG/1.1/DTD/svg11.dtd" >
<svg xmlns="http://www.w3.org/2000/svg" xmlns:xlink="http://www.w3.org/1999/xlink" version="1.1">
<metadata>
Created by FontForge 20170924 at Sat Apr  1 19:30:23 2017
 By www-data
JVu
</metadata>
<defs>
<font id="thewitcher" horiz-adv-x="561" >
  <font-face 
    font-family="thewitcher"
    font-weight="500"
    font-stretch="normal"
    units-per-em="1000"
    panose-1="2 0 6 3 0 0 0 0 0 0"
    ascent="780"
    descent="-220"
    x-height="644"
    cap-height="644"
    bbox="-56 -219 826.362 783"
    underline-thickness="50"
    underline-position="-150"
    unicode-range="U+0020-F8FE"
  />
<missing-glyph horiz-adv-x="364" 
d="M66 33h199v600h-199v-600zM33 0v666h265v-666h-265z" />
    <glyph glyph-name=".notdef" horiz-adv-x="364" 
d="M66 33h199v600h-199v-600zM33 0v666h265v-666h-265z" />
    <glyph glyph-name=".null" horiz-adv-x="0" 
 />
    <glyph glyph-name="nonmarkingreturn" horiz-adv-x="333" 
 />
    <glyph glyph-name="space" unicode=" " horiz-adv-x="300" 
 />
    <glyph glyph-name="exclam" unicode="!" horiz-adv-x="279" 
d="M241 0h-117v117h117v-117zM240 643v-6v-16v-49v-49v-17v-6v-3v-8v-24v-25v-8v-7v-10q2 -61 2 -203l-54 31l-64 34v152v3v91v49q0 5 -0.5 11.5t-0.5 12t-1.5 11.5t-3.5 11t-7 9.5t-11.5 8t-16.5 5.5t-22 2h63h116z" />
    <glyph glyph-name="quotedbl" unicode="&#x22;" horiz-adv-x="326" 
d="M138 644v-2v-6v-20q0 -28 0.5 -61.5t0.5 -61.5v-21v-7l-108 -1v8v20q0 28 -0.5 61.5t-0.5 61.5v20v8zM288 644v-8v-20v-61.5t1 -61.5v-21v-7l-108 -1v8v20q-1 28 -1 61.5v61.5v20v8z" />
    <glyph glyph-name="numbersign" unicode="#" horiz-adv-x="683" 
d="M448 367q-20 -1 -81 -1h-107v-30v-12v-10v-16v-50h106h82v119zM88 457h7h7.5h9.5h47v78v18v18t-1.5 18t-3.5 16.5t-6 14t-9.5 11.5t-14 8.5t-19.5 4.5l54 -1h101v-9v-25v-74v-74v-3h107h42h39v51v136h100v-12v-31v-93v-51q1 0 10 1h63h7.5h5h4.5h7v-92h-6h-5h-5.5h-7.5
h-63h-1h-1h-1h-1h-1h-1h-1h-1h-2v-14v-46v-47v-11h10h63h7h5h5h7v-89h-6h-5h-5.5h-7.5h-63h-3h-3.5h-2.5v-331l-45 59l-56 64v208q-14 -1 -21 -1h-60h-106v-160h-104q0 80 1 159h-45h-9.5h-8.5h-6l-1 89h7h7.5h9.5h46v119q-8 0 -45 -1h-9.5h-8.5h-6z" />
    <glyph glyph-name="dollar" unicode="$" 
d="M338 313q-1 -68 -1 -137q51 50 69 137h-68zM248 504q-45 -25 -59 -79q57 -1 59 -1v80zM60 106h6h14h23h22h21.5h18.5q45 5 81 17q0 95 1 190h-105h-29h-22h-14h-5v104q0 7 1 11q14 89 56 135.5t120 63.5v60h91v-47q40 2 94 2l-1 -112q-54 2 -94 -2l-1 -104h115h28.5h22.5
h14h5l-1 -112q-3 -55 -21.5 -106t-60.5 -99t-104 -75v-77h-91v51q-3 -1 -7 -1q-20 -3 -48 -4h-6h-14h-23h-22h-22h-23h-14h-6v105z" />
    <glyph glyph-name="percent" unicode="%" horiz-adv-x="666" 
d="M224.5 547q-18.5 0 -32 -13.5t-13.5 -32.5t13.5 -32t32 -13t32 13t13.5 32t-13.5 32.5t-32 13.5zM224.5 601q41.5 0 70.5 -29t29 -70.5t-29 -71t-70.5 -29.5t-71 29.5t-29.5 71t29.5 70.5t71 29zM482.5 218q-18.5 0 -32 -13.5t-13.5 -32t13.5 -32t32 -13.5t32 13.5
t13.5 32t-13.5 32t-32 13.5zM482.5 273q41.5 0 71 -29.5t29.5 -71t-29.5 -70.5t-71 -29t-70.5 29t-29 70.5t29 71t70.5 29.5zM37 -6l500 659h92l-494 -660z" />
    <glyph glyph-name="ampersand" unicode="&#x26;" horiz-adv-x="661" 
d="M327 249l-103 -150h45.5h69.5h93zM322 415l90 129h-1h-1h-1h-1h-1h-1h-1h-1h-1h-1h-1h-1h-1h-1h-1h-1h-1h-1h-1h-1h-1h-1h-1h-1h-1h-1h-1h-1h-1h-1h-1h-1h-1h-1h-2h-1h-1h-1h-1h-1h-1h-1h-1h-1h-1h-1h-1h-1h-1h-1h-1h-1h-1h-1h-1h-1h-1h-1h-1h-1h-1h-1h-1h-1h-1h-1h-1h-1
h-1h-1h-1h-1h-1h-1h-1h-1h-1h-1h-1h-1h-1h-101zM482 644h117l-69 -100l-146 -213l239 -330l-85 -1v-1h-4h-13h-1h-44h-5q-32 0 -68.5 0.5t-78.5 0.5h-79h-69h-20h-13h-4h-12h-13h-5v1l-76 -1l233 335l-219 310h109v-1h16h20h138h138h13h1z" />
    <glyph glyph-name="quotesingle" unicode="'" horiz-adv-x="167" 
d="M129 701v-243h-96v243h96z" />
    <glyph glyph-name="parenleft" unicode="(" horiz-adv-x="828" 
d="M488 545l303 -545h-70h-47l-536 1l-1 -1l-120 1l387 682l59 -106l-267 -473l422 -2l-188 340z" />
    <glyph glyph-name="parenright" unicode=")" horiz-adv-x="841" 
d="M327 138l-309 552h118l545 1h122l-391 -693l-60 107l272 485q-215 -1 -430 -3l192 -345z" />
    <glyph glyph-name="asterisk" unicode="*" horiz-adv-x="331" 
d="M278 595l-24 -65l40 -57l-70 3l-42 -56l-19 67l-66 22l58 39l1 70l55 -43z" />
    <glyph glyph-name="plus" unicode="+" horiz-adv-x="565" 
d="M31 458h5h16h27.5h28.5h116v4v3v73q1 9 0.5 18t-0.5 18t-1.5 17.5t-3.5 16.5t-7 14.5t-11.5 11.5t-16.5 8t-22 4l62 -1h117v-9v-24v-74v-73v-6h109h28.5h27.5h16h5v-70h-5h-16h-27.5h-28.5h-66h-43v-11v-37v-12v-10v-16q1 -91 1 -303l-53 46l-65 51v227v5v59h-116h-28.5
h-27.5h-15h-6v70z" />
    <glyph glyph-name="comma" unicode="," horiz-adv-x="268" 
d="M42 -124q116 79 104 186q-31 4 -46 31q-14 23 -7 49t30 39.5t48.5 6.5t39.5 -30q6 -10 8 -21q39 -115 -57 -208q-36 -35 -103 -54q-21 -6 -20 -2q0 1 3 3z" />
    <glyph glyph-name="hyphen" unicode="-" 
d="M27 332h5h16h27.5h28.5h171h170h29.5h27.5h15h6v-70h-6h-15h-27.5h-29.5h-170h-171h-28.5h-27.5h-16h-5v70z" />
    <glyph glyph-name="period" unicode="." horiz-adv-x="229" 
d="M191 1h-117v117h117v-117z" />
    <glyph glyph-name="slash" unicode="/" horiz-adv-x="425" 
d="M3 -122l280 813l104 -1l-280 -814z" />
    <glyph glyph-name="zero" unicode="0" horiz-adv-x="552" 
d="M188 358v-7v-14v-7.5t-0.5 -6.5t-0.5 -4.5v-2.5v-4v-15v-45v-45v-15v-3v-1q0 -2 1 -4v-12q1 -16 1 -35q1 -13 1 -28q78 12 130 49.5t76 114.5l2 25q2 33 3 39q0 13 0.5 29t0.5 29v10v7v13v18v21t0.5 20.5t0.5 18.5v12v10v6q-49 0 -84 -4.5t-58 -15.5t-37 -23.5
t-21.5 -34.5t-10.5 -42.5t-4 -52.5zM514 643v-5v-14v-42v-43v-14v-5v-5v-13v-17.5v-20.5v-21v-18v-13v-5v-1v-4v-10q-1 -13 -1 -29t-1 -29v-10v-4q-3 -40 -13 -78.5t-30.5 -78.5t-50.5 -71t-76 -55t-104 -32q-22 -4 -47 -4h-5h-13l-39 -1h-39l-13 -1h-5q0 43 -1 86v3v3.5
v4.5q-1 17 -2 36l-1 36v12q0 2 -1 3v1v3v5v15v45v45v15v6v1v2q0 2 1 5v14v14v7q1 5 0.5 13.5t-0.5 18.5t2 24q5 65 28 108.5t66 69t98.5 36.5t135.5 12h29h82z" />
    <glyph glyph-name="one" unicode="1" horiz-adv-x="449" 
d="M31 244v3v9v20v1v5v15q1 13 1 24h1v1h-1q3 73 18 120.5t54 90.5q38 41 114 82q30 16 98 49.5t95 45.5l-25 -76v-2v-5v-20l-1 -72q-1 -98 -2 -216t-2 -217v-2v-1v-2v-2v-1v-2v-1v-2v-1v-2v-1v-2v-1v-1v-2v-1v-1v-1v-1v-2v-1v-1v-1v-1v-1v-1v-1v-1v-1v-1v-1v-1v-1v-1v-1v-1
v-1v-1v-1v-1v-1v-1v-1v-1v-1v-1v-1v-1v-1v-1v-1v-1v-1v-1v-1v-1v-1v-1v-1v-1v-2v-20q-1 -6 -1 -7l-115 1v7v20l1 71q1 98 2 217q1 120 1 193q-40 -22 -68 -53q-46 -51 -54 -145v-6v-27v-26v-9v-3h-116zM32 322l-1 -1h1v1z" />
    <glyph glyph-name="two" unicode="2" horiz-adv-x="492" 
d="M454 0h-4h-12h-44h-62.5h-71.5h-71.5h-62.5h-44h-12h-4l2 70q1 22 5 44q7 44 24 84t46.5 76.5t77 63.5t107.5 39v18v87v15v14v10v6v9q-123 -6 -160 -127l-13 -59v-5h-1h-103l18 121h1q26 84 87 124.5t174 55.5q8 -1 19 -1h94v-4v-160v-87v-126q-26 1 -52 1q-2 -1 -5 0
q-30 2 -64.5 -11.5t-71 -50.5t-56.5 -91h65q38 0 71.5 -0.5t62.5 -0.5h44h12h4v-115z" />
    <glyph glyph-name="three" unicode="3" horiz-adv-x="515" 
d="M75 116h5h3.5h4h5.5h39h15h11.5h12.5q155 37 189 198h-82q-74 1 -136 1h-26h-19h-13h-4v111h5h12h20h25h105q72 21 100 105h-78h-133h-23h-21h-12h-5v114h5h12h21h23h132.5h133.5h22.5h21.5h12h4v-115h-1q-19 -70 -42 -104h22.5h18.5h13h4v-112h-1q-3 -51 -19 -96.5
t-48 -89t-88 -76.5t-131 -50h-1v-1h-2h-15l-1 1h-39h-40h-5h-3.5h-4.5h-5z" />
    <glyph glyph-name="four" unicode="4" horiz-adv-x="500" 
d="M184 644v-10v-25v-75v-76v-25v-8h14h18q45 -1 98 -1h1h2h1h1h1h1h1h1h1h1h1h2h1h1h1h1h1h1h1h1h1h1h1h1h1h1h1h1v22v82v118h117v-10v-27v-81v-82v-27v-10v-5v-14v-40v-41v-14v-11v-18q1 -100 1 -336l-53 52l-65 56v252v5v18h-1h-1h-1h-1h-1h-1h-1h-1h-1h-1h-1h-1h-1h-1
h-1h-1h-1h-1h-1h-1h-1h-1h-1h-1h-1h-1h-1h-1h-2h-99h-18h-13h-115v5v140v76q0 5 0.5 23.5t0 25.5t-3.5 21t-8.5 20.5t-17 12t-28.5 6.5q-9 1 23.5 1h33.5h115z" />
    <glyph glyph-name="five" unicode="5" 
d="M60 106h6h14h23h22h21.5h18.5q97 10 158.5 58t82.5 149h-59h-121h-23h-17h-12h-3h-102v5v140v76v23.5t-0.5 25.5t-3.5 21t-8.5 20.5t-17 12t-28.5 6.5l58 1h115h1h1h1h1h1h1h1h1h1h1h1h1h1h1h1h1h1h1h1h1h1h1h1h1h1h1h1h1h1h1h1h1h1h1h1h1h1h1h1h1h1h1h1h1h1h1h1h1h1h1h1
h1h1h1h1h1h1h1h1h1h1h1h1h1h1h1h1h2q57 -1 104 -1h18h16h10h3v-114h-3h-10h-16h-18h-104h-69v-71v-25v-8h2h18h22q55 -1 121 -1h121h23h17h11h4v-112h-1q-2 -40 -12.5 -78t-32.5 -76t-53 -68.5t-79 -53t-107 -31.5q-20 -3 -48 -4h-6h-14h-23h-22h-22h-23h-14h-6v105z" />
    <glyph glyph-name="six" unicode="6" horiz-adv-x="534" 
d="M382 222q-12 -1 -109 -2l-102 -1v-1v-38t1 -39v-13v-4v-5v-6q105 1 151.5 27.5t58.5 81.5zM491 541h-5h-13q-17 -1 -38 -1q-24 -1 -30 -1q-97 -12 -158.5 -60t-80.5 -149q17 0 106 1h2h2h1h2h1h2h2h1h2h1h1h2h1h2h1h2h1h1h2h1l1 1h2h1h1h2h1h1h1h1h2h1h1h1h1h1h1h2h1h1h1
h1h1h1h1h1h1h1h1h1h1h1h1h1h1h1h1h1h1h1h1h1h1h1h1h1h1h1h1h1h1h1h1h1h1h1h1h1h1h1h1h1h1h1h1h1h1h1h1h1h1h1h1h1h1h1h1h1h1h1h1h1h1h1h1h1l1 1h1h1h1h1h1h1h1h1h1h1h1h1h1h1h1h1h1h1h1h1h1h1h1h1h1h1h1h2h49q8 0 14 1h1h3h1v-3q10 -56 7 -100q-4 -65 -26 -108.5
t-64.5 -69.5t-97.5 -37.5t-135 -13.5v-1h-28l-86 -1v1v4v14q0 19 -1 42v42v14v4v1l-1 5v13v38v21t-1 18v7v6v5v1v1v3v9q1 7 1 14.5v14.5v16v14v4v7v2q3 40 12.5 78t30 78t50.5 71.5t75.5 56t102.5 33.5q23 4 47 4l5 1h13q18 0 39 0.5t39 1.5h12h5z" />
    <glyph glyph-name="seven" unicode="7" horiz-adv-x="637" 
d="M482 644h117l-69 -100l-373 -543l-124 -1l379 544h-1h-1h-1h-1h-1h-1h-1h-1h-1h-1h-1h-1h-1h-1h-1h-1h-1h-1h-1h-1h-1h-1h-1h-1h-1h-1h-1h-1h-1h-1h-1h-1h-1h-1h-2h-1h-1h-1h-1h-1h-1h-1h-1h-1h-1h-1h-1h-1h-1h-1h-1h-1h-1h-1h-1h-1h-1h-1h-1h-1h-1h-1h-1h-1h-1h-1h-1h-1
h-1h-1h-1h-1h-1h-1h-1h-1h-1h-1h-1h-1h-1h-105l63 -92l-50 -78l-191 271h109v-1h16h20h138h138h13h1z" />
    <glyph glyph-name="eight" unicode="8" horiz-adv-x="555" 
d="M406 313h-107h-63.5h-48.5v-1v-15v-45v-45v-15v-3v-2v-3q1 -5 1 -12l1 -35q1 -14 1 -28q86 14 141 62t75 142zM189 425q83 -1 110 -1h104v1v18v21v20.5v18.5v12v5v5v6q-106 0 -153 -26t-61 -80zM518 643v-5v-14v-42v-43v-14v-5v-5v-13v-17.5v-20.5v-21t-1 -18v-13v-5v-1
v-1v-3v-10q0 -13 -0.5 -29t-0.5 -29v-2.5t-1 -2.5h1q0 -3 -1 -7v-2q-3 -40 -13 -78t-31.5 -78t-51.5 -71.5t-76.5 -55.5t-104.5 -32q-22 -4 -47 -4h-5h-13l-39 -1h-39l-13 -1h-5l-1 81v5v11l-2 36l-1 36q0 7 -1 12v3v1v2v6v15v45v45v15v5v2v1v5q1 7 1 14.5v14.5v6v1
q1 5 0.5 13.5t-0.5 18.5t2 24q5 65 28 108.5t66 69t98.5 36.5t135.5 12h29h86z" />
    <glyph glyph-name="nine" unicode="9" horiz-adv-x="555" 
d="M189 425q83 -1 110 -1h104v1v18v21v20.5v18.5v12v5v5v6q-106 0 -153 -26t-61 -80zM76 104h5q5 1 13 1h39h30q97 11 159.5 58.5t83.5 149.5h-107h-150h-27.5h-21.5h-14h-1h-3h-1v3q-10 56 -6 101q5 65 28 108.5t66 69t98.5 36.5t135.5 12h29h86v-5v-14v-42v-43v-14v-5v-5
v-13v-17.5v-20.5v-21t-1 -18v-13v-5v-1v-1v-3v-10q0 -13 -0.5 -29t-0.5 -29v-2.5t-1 -2.5h1q0 -3 -1 -7v-2q-3 -40 -13 -78t-31.5 -78t-51.5 -71.5t-76.5 -55.5t-104.5 -32q-22 -4 -47 -4h-5h-13l-39 -1h-39l-13 -1h-5z" />
    <glyph glyph-name="colon" unicode=":" horiz-adv-x="231" 
d="M191 1h-117v117h117v-117zM193 302h-117v117h117v-117z" />
    <glyph glyph-name="semicolon" unicode=";" horiz-adv-x="268" 
d="M42 -124q116 79 104 186q-31 4 -46 31q-14 23 -7 49t30 39.5t48.5 6.5t39.5 -30q6 -10 8 -21q39 -115 -57 -208q-36 -35 -103 -54q-21 -6 -20 -2q0 1 3 3zM209 300h-118v117h118v-117z" />
    <glyph glyph-name="less" unicode="&#x3c;" horiz-adv-x="575" 
d="M126 371l406 -235l-2 -85l-479 280zM149 389l389 209l-1 -82l-315 -169z" />
    <glyph glyph-name="equal" unicode="=" horiz-adv-x="566" 
d="M32 453h6h16h26.5h29.5h170h171h29.5h26.5h16h6v-70h-6h-16h-26.5h-29.5h-170.5h-170.5h-29.5h-26.5h-16h-6v70zM31 251h5h16h27.5h28.5h171h171h28.5h27.5h16h5v-70h-5h-16h-27.5h-28.5h-171h-171h-28.5h-27.5h-15h-6v70z" />
    <glyph glyph-name="greater" unicode="&#x3e;" horiz-adv-x="588" 
d="M476 299l-408 227v85l482 -270zM453 282l-382 -216l-1 82l310 174z" />
    <glyph glyph-name="question" unicode="?" horiz-adv-x="416" 
d="M71 357v77h3h4.5h5.5h35h105h71q-15 75 -58.5 110.5t-111.5 42.5h-23h-33h-11h-4v78h4h11h33h33h11h4v-1q14 0 26 -2q52 -8 91.5 -31t62 -56t34.5 -68t14 -72v-83h-3h-3h-2.5h-4.5h-34h-106q-54 -1 -70 -1q7 -47 34.5 -72.5t91.5 -27.5l-1 -76q-105 3 -149.5 40
t-57.5 133q-1 3 -1 8zM249 116q24 0 41.5 -17t17.5 -41.5t-17.5 -41.5t-41.5 -17t-41.5 17t-17.5 41.5t17.5 41.5t41.5 17z" />
    <glyph glyph-name="at" unicode="@" horiz-adv-x="864" 
d="M475 130q7 49 17 125l14 99q-14 2 -24 2q-16 0 -28 -3q-68 -21 -99 -72q-27 -43 -17 -91q8 -43 41 -62q37 -21 94 1q1 0 2 1zM608 431v-4q-1 -5 -2 -12q-2 -18 -6 -43v-1v-2v-1l-1 -1v-2v-1v-1v-1v-1l-1 -2v-1v-1v-1v-1v-1l-1 -2v-1v-1v-1v-1v-1v-1l-1 -1v-1v-1v-1v-1v-1
v-1v-1l-1 -1v-1v-1v-1v-1v-1v-1h-1v-1v-1v-1v-1v-1v-1v-1l-1 -1v-1v-1v-1v-1v-1v-1l-1 -1v-1v-1v-1v-1v-1v-1l-1 -1v-1v-1v-1v-1v-1v-1v-1l-1 -1v-1v-1v-1v-1v-1v-1l-1 -1v-1v-1v-1v-1v-1v-1l-1 -1v-1v-1v-1v-1v-1v-1v-1h-1v-1v-1v-1v-1v-1v-1l-1 -1v-1v-1v-1v-1v-1v-1v-1
l-1 -1v-1v-1v-1v-1v-1v-1l-1 -1v-1v-1v-1v-1v-1v-1v-1l-1 -1v-1v-1v-1v-1v-1l-1 -1v-2q-11 -81 -15 -111l12 -3l10 -1q89 -6 126 61q37 68 9 162q-30 102 -116 153q-100 61 -244 23q-109 -29 -167 -125q-54 -90 -45.5 -202.5t76.5 -186.5q72 -80 190 -83q73 -2 113 4
q32 5 95 34l48 -77q-53 -35 -129 -47q-48 -7 -129 -5q-157 4 -256 113q-88 97 -99 240q-11 142 58 257q77 128 222 166q181 47 314 -33q57 -34 97 -87t59 -118q19 -61 14.5 -122.5t-31.5 -109.5q-31 -56 -85.5 -84.5t-125.5 -23.5q-11 0 -23 3q-10 2 -21 6q-9 2 -18 5l-3 1
q-5 -4 -12 -7q-97 -38 -172 5q-69 40 -86 124q-16 82 29 155q49 81 151 112q26 8 57 7q21 -1 57 -7q33 -4 66 -9z" />
    <glyph glyph-name="A" unicode="A" horiz-adv-x="583" 
d="M430 556l-4 -2q-137 -46 -186 -99q-42 -46 -52 -118l240 28v1v1v2v1v1v2v1v1v1v2v1v1v1v2v1v1v1v1v2v1v1v1v1v2v1v1v1v1v1v1v2v1v1v1v1v1v1v1l1 1v1v2v1v1v1v1v1v1v1v1v1v1v1v1v1v1v1v1v1v1v1v1v1v110q1 7 1 11zM68 1v3v9v32v97v97v32v9v2v2q1 93 15.5 143.5t59.5 100.5
q38 41 114 81q30 16 98 50t95 45l-12 -59h108v-2v-6q0 -8 -1 -20v-73q-1 -101 -2 -221.5t-1 -221.5q-1 -43 -1 -73v-20v-8l-116 1q0 2 1 7v21v73q1 78 1 147l-243 -28v-79v-97v-32v-9v-3h-116z" />
    <glyph glyph-name="B" unicode="B" 
d="M184 108q88 13 145 61t77 144h-59h-121h-23h-17h-2v-31v-48v-19v-9v-24v-74zM184 644h121q76 -1 140 -1h24h22h13h4v-114h-1v-1q-20 -70 -42 -104h1h2h23h17h11h4v-112h-1q-2 -40 -12.5 -78t-32.5 -76t-53 -68.5t-79 -53t-107 -31.5q-22 -4 -54 -4h-115v10v271v148v39.5
v42t-1.5 38t-5 36t-10 27t-17 21.5t-24.5 9l58 1h115zM184 529v-99v-3h3q20 -2 33 -2h6h29q48 2 83 25t54 79h-87h-121z" />
    <glyph glyph-name="C" unicode="C" horiz-adv-x="549" 
d="M93 644h5h13h22h24h140h140h24h22h13h5v-115h-5h-13h-22h-24h-140h-118v-64v-24v-9v-4v-12v-37v-4q3 -60 11.5 -98.5t28.5 -73t56.5 -56t94.5 -34.5h12q24 0 52.5 -0.5t53.5 -0.5h9.5h7.5h5h2l-1 -112h-1h-5q-4 1 -8 1h-10h-53h-53h-9.5h-7.5h-5h-1h-1q-40 5 -77.5 18
t-75 37.5t-66.5 57.5t-49.5 82.5t-25.5 108.5q-1 8 0 21v5v134v73v14v15t-1 13.5t-2 14t-3.5 12t-5.5 12t-8 9t-11 8t-14.5 5t-18.5 3.5h64h30z" />
    <glyph glyph-name="D" unicode="D" 
d="M417 310q1 9 0 12v50q0 52 -1 157h-111h-121v-99v-148v-48v-19v-9v-24v-74v-7q123 15 186 95q39 50 45 97q1 10 2 17zM522 645v-6v-11v-38q0 -52 0.5 -114.5t0.5 -114.5v-38v-11v-3q0 -49 -16.5 -96.5t-49.5 -91t-89.5 -74.5t-129.5 -42q-22 -4 -54 -4h-115v10v271v148
v39.5v42t-1.5 38t-5 36t-10 27t-17 21.5t-24.5 9l58 1h115h121q76 -1 140 -1h21z" />
    <glyph glyph-name="E" unicode="E" horiz-adv-x="496" 
d="M136 644h4h10h36h55.5h53.5h55h55h36h10h4v-95h-4h-10h-36h-55h-55h-53.5h-55.5h-7v-11v-73v-24v-9v-5v-8l197 -2l-1 -115q-95 1 -189 2q12 -86 58.5 -132t154.5 -65h9h35h6.5h4.5h4h1v-106h-2h-3h-5h-6h-35h-2h-1h-1h-2h-1h-1h-2h-1h-1h-1h-1h-1h-1h-1h-1h-1h-1h-1h-1
h-1h-1h-1h-1h-1h-1h-1h-1h-1h-1h-1h-1h-1h-6h-5h-3h-1q-40 5 -77.5 18t-75 37.5t-66 57.5t-49 82t-25.5 108v6q-1 10 -1 20v135v73v15t-0.5 16.5t-1.5 14.5t-2.5 15.5t-4.5 12.5t-8 12.5t-11.5 8.5t-15.5 7.5t-20 2.5l64 1h72z" />
    <glyph glyph-name="F" unicode="F" horiz-adv-x="492" 
d="M140 644h10h34h2h109h55h55h36h10h4v-95h-4h-10h-36h-55h-55h-53.5h-55.5h-2v-119v-11l192 -2l-1 -115q-96 1 -191 2v-22v-48v-19v-9v-24v-74v-107h-115v10v271v148v39.5v42t-1.5 38t-5 36t-10 27t-17 21.5t-24.5 9l58 1h67h4z" />
    <glyph glyph-name="G" unicode="G" 
d="M293 425h3h7h11.5h14.5q36 -1 79 -1h79h15.5h10.5h8h2v-112h-1q-2 -40 -12.5 -78t-32.5 -76t-53 -68.5t-79 -53t-107 -31.5q-22 -4 -54 -4h-115v10v271v148v39.5v42t-1.5 38t-5 36t-10 27t-17 21.5t-24.5 9l58 1h115h121q76 -1 140 -1h24h22h13h4v-114h-4h-13h-22.5
h-23.5h-140h-121v-99v-148v-48v-19v-9v-24v-74q88 13 145 61t77 144h-77h-15.5h-11.5h-7h-2v112z" />
    <glyph glyph-name="H" unicode="H" horiz-adv-x="628" 
d="M590 645v-8v-20v-35.5v-38.5v-222v-135v-124.5v-57.5q-6 -17 -15 -33t-19.5 -28t-22 -23t-22 -19t-18.5 -13.5t-13 -8.5t-5 -2q0 3 -0.5 72t-0.5 76v73q1 97 1 163l-296 32q1 -214 1 -293h-121l2 536q1 9 0.5 18t-0.5 18t-1.5 17.5t-3.5 16.5t-7 14.5t-11.5 11.5t-16.5 8
t-22 4h62h117v-9v-25v-74v-74v-25v-9v-5v-12v-8l297 -32v173v38v35v20v8h115z" />
    <glyph glyph-name="I" unicode="I" horiz-adv-x="217" 
d="M178 644v-9v-24v-74v-74v-24v-9v-5v-12v-36v-37v-12v-10v-16q1 -91 1 -304l-53 47l-64 51l-1 227v5v135v74q1 9 0.5 18t-0.5 18t-1.5 17.5t-3.5 16t-7 14t-11.5 11.5t-16.5 8.5t-22 3.5h62h117z" />
    <glyph glyph-name="J" unicode="J" horiz-adv-x="510" 
d="M130 644h3h8h15.5h16.5h95h44h107h54q-15 -2 -26 -8t-16.5 -12.5t-8 -20.5t-3 -21.5t-0.5 -26.5v-25v-78v-145v-5q-1 -48 -17.5 -94.5t-49 -88.5t-89 -72.5t-129.5 -41.5q-21 -3 -49 -3h-3h-3h-6h-14h-15h-15h-13h-9h-4l1 99h3h9h13.5h15.5h15h13h2q126 13 191 95
q38 50 44 98l2 10v55v40v12v5v10v26v78v20h-44h-95h-17h-15h-8h-4z" />
    <glyph glyph-name="K" unicode="K" horiz-adv-x="703" 
d="M178 645v-10v-24v-74v-74v-25v-9v-5v-12v-23q22 0 42 -1h4l163 259h120l-182 -302q26 -24 56 -54l34 -34q7 -7 16 -17l16 -17q44 -45 80 -77q9 -8 20 -18t25.5 -22t22.5 -19l70 -55l1 -119q-25 11 -44 23q-29 19 -36 24q-66 46 -120 95q-62 55 -99 94q-8 9 -71 71
q-44 44 -56 54l-5 5h-3h-5h-4.5h-5.5h-1h-1h-2h-1h-2l-1 1h-1h-2h-1h-1h-2h-1h-1h-1h-1h-1h-2h-1h-1h-1h-1h-1h-2h-1h-1h-1h-1h-1h-1h-1h-2q1 -239 1 -280l-122 1l3 536v18t-0.5 18t-1.5 17.5t-3.5 16.5t-7.5 14.5t-11.5 11.5t-16.5 8t-23 4h64h117z" />
    <glyph glyph-name="L" unicode="L" horiz-adv-x="414" 
d="M184 644v-19v-48v-147v-148v-48v-19v-9v-24v-66h61q49 -1 90 -1h15.5h14.5h8h3v-114h-3h-8h-14.5h-15.5h-90h-2h-1h-2h-2h-1h-2h-1h-2h-1h-1h-2h-1h-1h-2h-1h-1h-1h-2h-1h-1h-1h-1h-1h-1h-1h-1h-1h-1h-1h-1h-1h-1h-1h-1h-1h-1h-1h-1h-1h-1h-1h-1h-1h-1h-1h-1h-1h-1h-1h-1
h-1h-1h-1h-1h-1h-1h-1h-1h-1h-1h-1h-1h-1h-1h-1h-1h-1h-1h-1h-1h-1h-1h-1h-1h-1h-1h-1h-1h-1h-1h-1h-2h-15h-14h-9h-3h-44v10v271v148v39.5v42t-1.5 38t-5 36t-10 27t-17 21.5t-24.5 9l58 1h115z" />
    <glyph glyph-name="M" unicode="M" horiz-adv-x="710" 
d="M282 218v2v7v10v9.5v11.5q-3 73 -15.5 118.5t-41.5 76.5q-29 32 -70 55q0 -72 -1 -191q-1 -118 -2 -216q0 -42 -1 -72v-20v-7l-115 1v7v20q0 30 1 72q0 98 1 216q1 119 2 217q1 42 1 71v20v3l-25 74q27 -11 95 -45t98 -50q75 -40 113 -82q11 -12 20 -24q10 15 24 29
q38 42 114 82q29 16 97.5 50t95.5 45l-26 -76h1v-2q0 -2 -1 -5v-20v-71q-1 -99 -2 -217t-2 -216q0 -42 -1 -72v-20v-7l-115 1v7v20q0 30 1 72q0 98 1 216q1 121 2 194q-40 -23 -68 -54q-27 -29 -40 -72t-16 -110v-3v-6v-10.5v-10v-9.5v-10v-7v-2h-125z" />
    <glyph glyph-name="N" unicode="N" horiz-adv-x="513" 
d="M39 0v9v24v73v73v13v11v9v5v12v18v18v18v18v12v10v16q-1 22 0 210h-1l62 95q11 -6 18 -10q9 -5 23.5 -11.5t25.5 -12.5q3 -2 5 -3q72 -31 133 -66q30 -17 51 -35v47l63 91l56 -48q-2 -56 -2 -88v-11v-22.5v-20.5v-14v-5v-7v-10v-10v-27.5v-31v-31.5v-27v-10v-10v-12v-13
v-20.5v-20v-20v-20.5v-13v-11v-17q0 -23 0.5 -50.5t0.5 -49.5v-17v-6l-119 -1v258l-1 11q-5 42 -21 80t-40 61q-38 36 -111 65q-1 1 -28 11l1 -168v-4v-135v-73v-106h-116z" />
    <glyph glyph-name="O" unicode="O" horiz-adv-x="635" 
d="M252 8q-92 20 -151 99q-47 62 -63 147l-34 -28q4 34 17.5 107.5t19.5 91.5q1 3 2 5q15 62 48 109q57 83 151 102l-25 31q26 -6 60.5 -13.5t53.5 -12t36 -9.5q83 -24 137 -97q48 -65 63 -154l31 24q-4 -32 -18 -103t-20 -93q-16 -60 -47 -106l-12 -16q-1 0 -1 -1
q-55 -68 -137 -85l21 -23q-23 4 -68.5 12t-63.5 13zM294 540q-73 -1 -115 -62q-43 -62 -41 -153q2 -93 48 -154q47 -62 126 -62q71 0 112 60q43 61 41 153q-1 92 -47 154q-44 59 -117 64h-7z" />
    <glyph glyph-name="P" unicode="P" horiz-adv-x="535" 
d="M241 387q9 3 15 7q8 6 42.5 38.5t43.5 41.5q15 17 29 35q13 16 6 39h-52q-65 1 -119 1h-18h-10v-12v-74v-25v-9v-5v-12v-23q7 -1 14 -1q20 0 37 -1h12zM153 645h3h11h19h20q54 0 119 -1h118h21h18h11h4v-96q0 -36 -6 -57t-30 -53q-20 -24 -49 -53l-78 -68
q-4 -4 -12.5 -10.5t-32.5 -17.5t-46 -11h-1h-4h-12l-37 1h-1h-1h-1h-1l-2 1h-1h-1h-1h-1q1 -240 1 -280l-122 1l3 536v18t-0.5 18t-1.5 17.5t-3.5 16.5t-7.5 14.5t-11.5 11.5t-16.5 8t-23 4h64h92z" />
    <glyph glyph-name="Q" unicode="Q" horiz-adv-x="630" 
d="M518 643v-5v-14v-42v-43v-14v-5v-5v-13v-17.5v-20.5v-21t-1 -18v-13v-5v-1v-1v-3v-10q0 -13 -0.5 -29t-0.5 -29v-2.5t-1 -2.5h1q0 -3 -1 -7v-2q-6 -83 -42 -151q51 -43 65 -56l53 -42l1 -119q-25 10 -44 23q-28 19 -35 23v1v4q-50 33 -105 79q-68 -62 -170 -77
q-22 -4 -47 -4h-5h-13l-39 -1h-39l-13 -1h-5l-1 89v4q0 5 -1 12l-1 36q0 19 -1 36v1v2v1v1v1v1v1v1v1v1v4l-1 1v2v5v15v45v45v15v6v1l1 2v4v14v2v1v2v1v1v1v1v1v1v1v1v2v6q0 33 2 50q5 65 28 108.5t66 69t98.5 36.5t135.5 12h29h86zM182 365v-6v-15v-14q-1 -5 -1 -6v-5v-15
v-45v-45v-15v-3q0 -1 1 -5v-12q1 -16 1 -35l1 -36q87 12 136 53q-17 16 -34 34l-21 20l-2 1l-1 1l-2 2l-1 1l-1 1l-1 1l-1 1l-1 1l-1 1h-1l-1 1v1h-1l-1 1l-1 1l-1 1l-1 1l-1 1l-1 1l-1 1l-2 1l-1 2l-1 1l-1 1l-1 1h-1l-2 2l-3 3l76 81l2 -2q3 -3 8 -7l22 -21l22 -21l2 -1
l1 -1l1 -1l1 -1l1 -1l2 -1l3 -3q-1 -1 -2 -1q5 -6 10 -11q14 42 20 98v3v5v6q1 16 1 29v10v1l1 1v5v13v18v21v20.5v18.5v12v5v5v6q-55 0 -94 -7.5t-63 -20.5t-38 -35t-19.5 -45.5t-6.5 -57.5z" />
    <glyph glyph-name="R" unicode="R" horiz-adv-x="703" 
d="M377 548h-52q-65 1 -119 1h-18h-10v-12v-74v-25v-9v-5v-12v-23l67 -1q7 3 11 6q8 6 42.5 38.5t43.5 41.5q15 17 29 35q13 16 6 39zM153 645h3h11h19h20q54 0 119 -1h118h21h18h11h4v-96q0 -36 -6 -57t-30 -53q-20 -24 -49 -53q-13 -13 -67 -59q17 -16 36 -35l34 -34
q7 -7 16 -17l16 -17q44 -45 80 -77q9 -8 20 -18t25.5 -22t22.5 -19l70 -55l1 -119q-25 11 -44 23q-29 19 -36 24q-66 46 -120 95q-62 55 -99 94q-8 9 -71 71q-44 44 -56 54l-5 5l-56 1q1 -239 1 -280l-122 1l3 536v18t-0.5 18t-1.5 17.5t-3.5 16.5t-7.5 14.5t-11.5 11.5
t-16.5 8t-23 4h64h92z" />
    <glyph glyph-name="S" unicode="S" 
d="M60 106h6h14h23h22h21.5h18.5q97 10 158.5 58t82.5 149h-109h-155h-29h-22h-14h-5v104q0 7 1 11q8 55 27.5 92.5t47.5 61.5t72 37.5t93.5 18t120.5 4.5l-1 -112q-84 3 -135.5 -9t-75 -35t-33.5 -61q13 -1 49 -1h60h155h28.5h22.5h14h5l-1 -112q-2 -40 -12.5 -78
t-32.5 -76t-53 -68.5t-79 -53t-107 -31.5q-20 -3 -48 -4h-6h-14h-23h-22h-22h-23h-14h-6v105z" />
    <glyph glyph-name="T" unicode="T" horiz-adv-x="631" 
d="M15 646h7h18h66h100.5h97.5h99h100h66h18h7v-107h-7h-18h-66h-141v-49q1 -91 1 -199v-198q0 -39 1 -66v-7.5v-5.5v-5v-6l-116 -1v7v5v5.5v7.5q-1 27 -1 65v199t-1 198v50h-140h-66h-18h-7v107z" />
    <glyph glyph-name="U" unicode="U" horiz-adv-x="562" 
d="M521 645l1 -6v-19v-71q0 -97 1 -214v-25v-1v-17v-75v-96l1 -120l-107 -3v51v13v19q-71 -60 -179 -76q-22 -4 -54 -4h-115v10v271v148v39.5v42t-1.5 38t-5 36t-10 27t-17 21.5t-24.5 9l58 1h115v-19v-48v-147v-148v-48v-19v-9v-24v-74v-7q123 15 186 95q39 50 45 97
q1 8 2 14q-1 121 -1 214.5v96.5v20v7h105z" />
    <glyph glyph-name="V" unicode="V" 
d="M522 643v-4v-10v-38q0 -53 0.5 -115.5t0.5 -114.5v-38v-11v-3q0 -49 -16.5 -96.5t-49.5 -91t-89.5 -74.5t-129.5 -42q-22 -4 -54 -4h-115v10v271v148v39.5v42t-1.5 38t-5 36t-10 27t-17 21.5t-24.5 9l58 1h115v-19v-48v-147v-148v-48v-19v-9v-24v-74v-7q123 15 186 95
q39 50 45 97q1 10 2 17q1 9 0 12q0 8 -0.5 153t-0.5 153v11v3z" />
    <glyph glyph-name="W" unicode="W" horiz-adv-x="819" 
d="M152 645l4 -261q4 -43 20.5 -81t40.5 -61q38 -37 111 -66q3 -1 13 -6v17v7.5v6.5v6q0 1 1 7v20v59.5t1 59.5v19v12v14v19v21v41v13v11v8v9v24v27v27v24v17v6h120l-2 -260l2 -11q4 -43 20.5 -81t40.5 -61q38 -37 111 -67q1 0 28 -11v169v5q1 121 1 136v73l1 107h116v-9
v-25v-73v-74v-24l-1 -9v-5v-12v-37v-19v-17v-13v-10v-7v-9q0 -22 -1 -211l1 -1l-63 -94q-11 5 -19 9q-8 5 -22.5 12t-26.5 13q-2 2 -5 3q-72 32 -134 67q-30 17 -50 35q-1 -23 -1 -47h1l-28 -38q-2 -4 -5 -8l-32 -45l-125 78q-47 24 -67 35q-43 25 -71 56q-38 42 -65 107.5
t-30 138.5v9q-1 5 -1 9v7v2v4v9q0 13 0.5 28t0.5 28v9v6v7v8.5v10.5v19v6v6v7v12v12.5v12.5v12l-1 7v3h116z" />
    <glyph glyph-name="X" unicode="X" horiz-adv-x="655" 
d="M130 644h4h13h21.5h23.5h64.5h73.5h73.5h64.5h23h22h13h4v-1q41 1 82 1l-199 -296l-63 83l79 113h-1h-1h-1h-1h-1h-2h-1h-1h-1h-1h-1h-1h-1h-1h-1h-1h-1h-1h-1h-1h-1h-1h-1h-1h-1h-1h-1h-1h-1h-1h-1h-1h-1h-1h-1h-1h-1h-1h-1h-1h-1h-1h-1h-1h-1h-1h-1h-1h-1h-1h-1h-1h-1
h-1h-1h-1h-1h-1h-1h-1h-1h-1h-1h-1h-1h-1h-1h-1h-1h-1h-1h-1h-1h-1h-1h-1h-1h-1h-1h-1h-1h-1h-1h-1h-1h-1h-1h-1h-1h-1h-1h-1h-1h-1h-1h-1h-1h-1h-107l394 -544h-79v-1h-4h-14h-49q-32 0 -68.5 0.5t-78.5 0.5h-79h-69h-49h-13h-5h-71l200 295l62 -83l-79 -113h103h47h36h29
l-391 545h85z" />
    <glyph glyph-name="Y" unicode="Y" horiz-adv-x="717" 
d="M532 646l148 -1l-581 -765h-155l329 429l-265 336h154l191 -232z" />
    <glyph glyph-name="Z" unicode="Z" horiz-adv-x="652" 
d="M482 644h117l-69 -100l-306 -445h45.5h69.5h94l-69 99l54 79l197 -276l-77 -1v-1h-4h-13h-1h-6h-11h-27h-5q-32 0 -68.5 0.5t-78.5 0.5h-79h-69h-20h-13h-4h-12h-13h-5v1l-76 -1l379 544h-1h-1h-1h-1h-1h-1h-1h-1h-1h-1h-1h-1h-1h-1h-1h-1h-1h-1h-1h-1h-1h-1h-1h-1h-1h-1
h-1h-1h-1h-1h-1h-1h-1h-1h-2h-1h-1h-1h-1h-1h-1h-1h-1h-1h-1h-1h-1h-1h-1h-1h-1h-1h-1h-1h-1h-1h-1h-1h-1h-1h-1h-1h-1h-1h-1h-1h-1h-1h-1h-1h-1h-1h-1h-1h-1h-1h-1h-1h-1h-1h-1h-105l63 -92l-50 -78l-191 271h109v-1h16h20h138h138h13h1z" />
    <glyph glyph-name="bracketleft" unicode="[" horiz-adv-x="297" 
d="M249 -219q-23 1 -47 2l-101 1h-1q1 9 1 25v6v8.5v11.5v112.5v112.5v19.5v17.5v15v7v18q1 26 1 56v31v26v18v16v10.5v13.5l1 470h38h68l47 2q-9 -1 -15.5 -4.5t-11.5 -10t-8.5 -15t-5.5 -18.5t-3.5 -21t-2 -23t-0.5 -24.5v-24.5v-23l-2 -778q9 -54 42 -57z" />
    <glyph glyph-name="backslash" unicode="\" horiz-adv-x="401" 
d="M56 779l308 -971h-91l-309 970z" />
    <glyph glyph-name="bracketright" unicode="]" horiz-adv-x="236" 
d="M49 782q-2 1 -4 1q2 -1 4 -1zM49 782l47 -2l102 -1v-28v-9v-14q-1 -51 -1 -113t-1 -113v-37v-15v-7v-18q0 -26 -0.5 -57t-0.5 -56v-19v-15v-25q0 -34 -3 -471h-39q-34 0 -68 1q-23 -1 -47 -2q8 1 15 4t12 10.5t8.5 14t5.5 19t3.5 21t2 24t1 23.5t0.5 25v23l5 780
q-8 54 -42 57z" />
    <glyph glyph-name="asciicircum" unicode="^" horiz-adv-x="522" 
d="M298 652l-186 -329h-68l220 389zM312 633l173 -310h-67l-139 252z" />
    <glyph glyph-name="underscore" unicode="_" horiz-adv-x="535" 
d="M2 -61h5h16h26.5h29.5h171h170h29.5h27.5h15h6v-70h-6h-15h-27.5h-29.5h-170h-171h-28.5h-27.5h-16h-5v70z" />
    <glyph glyph-name="grave" unicode="`" horiz-adv-x="490" 
d="M205 779l248 -221l-97 3l-243 218h92z" />
    <glyph glyph-name="a" unicode="a" horiz-adv-x="583" 
d="M430 556l-4 -2q-137 -46 -186 -99q-42 -46 -52 -118l240 28v1v1v2v1v1v2v1v1v1v2v1v1v1v2v1v1v1v1v2v1v1v1v1v2v1v1v1v1v1v1v2v1v1v1v1v1v1v1l1 1v1v2v1v1v1v1v1v1v1v1v1v1v1v1v1v1v1v1v1v1v1v1v1v110q1 7 1 11zM68 1v3v9v32v97v97v32v9v2v2q1 93 15.5 143.5t59.5 100.5
q38 41 114 81q30 16 98 50t95 45l-12 -59h108v-2v-6q0 -8 -1 -20v-73q-1 -101 -2 -221.5t-1 -221.5q-1 -43 -1 -73v-20v-8l-116 1q0 2 1 7v21v73q1 78 1 147l-243 -28v-79v-97v-32v-9v-3h-116z" />
    <glyph glyph-name="b" unicode="b" 
d="M184 108q88 13 145 61t77 144h-59h-121h-23h-17h-2v-31v-48v-19v-9v-24v-74zM184 644h121q76 -1 140 -1h24h22h13h4v-114h-1v-1q-20 -70 -42 -104h1h2h23h17h11h4v-112h-1q-2 -40 -12.5 -78t-32.5 -76t-53 -68.5t-79 -53t-107 -31.5q-22 -4 -54 -4h-115v10v271v148v39.5
v42t-1.5 38t-5 36t-10 27t-17 21.5t-24.5 9l58 1h115zM184 529v-99v-3h3q20 -2 33 -2h6h29q48 2 83 25t54 79h-87h-121z" />
    <glyph glyph-name="c" unicode="c" horiz-adv-x="549" 
d="M93 644h5h13h22h24h140h140h24h22h13h5v-115h-5h-13h-22h-24h-140h-118v-64v-24v-9v-4v-12v-37v-4q3 -60 11.5 -98.5t28.5 -73t56.5 -56t94.5 -34.5h12q24 0 52.5 -0.5t53.5 -0.5h9.5h7.5h5h2l-1 -112h-1h-5q-4 1 -8 1h-10h-53h-53h-9.5h-7.5h-5h-1h-1q-40 5 -77.5 18
t-75 37.5t-66.5 57.5t-49.5 82.5t-25.5 108.5q-1 8 0 21v5v134v73v14v15t-1 13.5t-2 14t-3.5 12t-5.5 12t-8 9t-11 8t-14.5 5t-18.5 3.5h64h30z" />
    <glyph glyph-name="d" unicode="d" 
d="M417 310q1 9 0 12v102l-1 105h-111h-121v-99v-148v-48v-19v-9v-24v-74v-7q123 15 186 95q39 50 45 97q1 10 2 17zM522 643v-4v-10v-38q0 -53 0.5 -115.5t0.5 -114.5v-38v-11v-3q0 -49 -16.5 -96.5t-49.5 -91t-89.5 -74.5t-129.5 -42q-22 -4 -54 -4h-115v10v271v148v39.5
v42t-1.5 38t-5 36t-10 27t-17 21.5t-24.5 9l58 1h115h121q76 -1 140 -1h24h22h13h4h14z" />
    <glyph glyph-name="e" unicode="e" horiz-adv-x="496" 
d="M136 644h4h10h36h55.5h53.5h55h55h36h10h4v-95h-4h-10h-36h-55h-55h-53.5h-55.5h-7v-11v-73v-24v-9v-5v-8l197 -2l-1 -115q-95 1 -189 2q12 -86 58.5 -132t154.5 -65h9h35h6.5h4.5h4h1v-106h-2h-3h-5h-6h-35h-2h-1h-1h-2h-1h-1h-2h-1h-1h-1h-1h-1h-1h-1h-1h-1h-1h-1h-1
h-1h-1h-1h-1h-1h-1h-1h-1h-1h-1h-1h-1h-1h-6h-5h-3h-1q-40 5 -77.5 18t-75 37.5t-66 57.5t-49 82t-25.5 108v6q-1 10 -1 20v135v73v15t-0.5 16.5t-1.5 14.5t-2.5 15.5t-4.5 12.5t-8 12.5t-11.5 8.5t-15.5 7.5t-20 2.5l64 1h72z" />
    <glyph glyph-name="f" unicode="f" horiz-adv-x="492" 
d="M140 644h10h34h2h109h55h55h36h10h4v-95h-4h-10h-36h-55h-55h-53.5h-55.5h-2v-119v-11l192 -2l-1 -115q-96 1 -191 2v-22v-48v-19v-9v-24v-74v-107h-115v10v271v148v39.5v42t-1.5 38t-5 36t-10 27t-17 21.5t-24.5 9l58 1h67h4z" />
    <glyph glyph-name="g" unicode="g" 
d="M293 425h3h7h11.5h14.5q36 -1 79 -1h79h15.5h10.5h8h2v-112h-1q-2 -40 -12.5 -78t-32.5 -76t-53 -68.5t-79 -53t-107 -31.5q-22 -4 -54 -4h-115v10v271v148v39.5v42t-1.5 38t-5 36t-10 27t-17 21.5t-24.5 9l58 1h115h121q76 -1 140 -1h24h22h13h4v-114h-4h-13h-22.5
h-23.5h-140h-121v-99v-148v-48v-19v-9v-24v-74q88 13 145 61t77 144h-77h-15.5h-11.5h-7h-2v112z" />
    <glyph glyph-name="h" unicode="h" horiz-adv-x="628" 
d="M590 645v-8v-20v-35.5v-38.5v-222v-135v-124.5v-57.5q-6 -17 -15 -33t-19.5 -28t-22 -23t-22 -19t-18.5 -13.5t-13 -8.5t-5 -2q0 3 -0.5 72t-0.5 76v73q1 97 1 163l-296 32q1 -214 1 -293h-121l2 536q1 9 0.5 18t-0.5 18t-1.5 17.5t-3.5 16.5t-7 14.5t-11.5 11.5t-16.5 8
t-22 4h62h117v-9v-25v-74v-74v-25v-9v-5v-12v-8l297 -32v173v38v35v20v8h115z" />
    <glyph glyph-name="i" unicode="i" horiz-adv-x="217" 
d="M178 644v-9v-24v-74v-74v-24v-9v-5v-12v-36v-37v-12v-10v-16q1 -91 1 -304l-53 47l-64 51l-1 227v5v135v74q1 9 0.5 18t-0.5 18t-1.5 17.5t-3.5 16t-7 14t-11.5 11.5t-16.5 8.5t-22 3.5h62h117z" />
    <glyph glyph-name="j" unicode="j" horiz-adv-x="510" 
d="M130 644h3h8h15.5h16.5h95h44h107h54q-15 -2 -26 -8t-16.5 -12.5t-8 -20.5t-3 -21.5t-0.5 -26.5v-25v-78v-145v-5q-1 -48 -17.5 -94.5t-49 -88.5t-89 -72.5t-129.5 -41.5q-21 -3 -49 -3h-3h-3h-6h-14h-15h-15h-13h-9h-4l1 99h3h9h13.5h15.5h15h13h2q126 13 191 95
q38 50 44 98l2 10v55v40v12v5v10v26v78v20h-44h-95h-17h-15h-8h-4z" />
    <glyph glyph-name="k" unicode="k" horiz-adv-x="703" 
d="M178 645v-10v-24v-74v-74v-25v-9v-5v-12v-23q22 0 42 -1h4l163 259h120l-182 -302q26 -24 56 -54l34 -34q7 -7 16 -17l16 -17q44 -45 80 -77q9 -8 20 -18t25.5 -22t22.5 -19l70 -55l1 -119q-25 11 -44 23q-29 19 -36 24q-66 46 -120 95q-62 55 -99 94q-8 9 -71 71
q-44 44 -56 54l-5 5h-3h-5h-4.5h-5.5h-1h-1h-2h-1h-2l-1 1h-1h-2h-1h-1h-2h-1h-1h-1h-1h-1h-2h-1h-1h-1h-1h-1h-2h-1h-1h-1h-1h-1h-1h-1h-2q1 -239 1 -280l-122 1l3 536v18t-0.5 18t-1.5 17.5t-3.5 16.5t-7.5 14.5t-11.5 11.5t-16.5 8t-23 4h64h117z" />
    <glyph glyph-name="l" unicode="l" horiz-adv-x="414" 
d="M184 644v-19v-48v-147v-148v-48v-19v-9v-24v-66h61q49 -1 90 -1h15.5h14.5h8h3v-114h-3h-8h-14.5h-15.5h-90h-2h-1h-2h-2h-1h-2h-1h-2h-1h-1h-2h-1h-1h-2h-1h-1h-1h-2h-1h-1h-1h-1h-1h-1h-1h-1h-1h-1h-1h-1h-1h-1h-1h-1h-1h-1h-1h-1h-1h-1h-1h-1h-1h-1h-1h-1h-1h-1h-1h-1
h-1h-1h-1h-1h-1h-1h-1h-1h-1h-1h-1h-1h-1h-1h-1h-1h-1h-1h-1h-1h-1h-1h-1h-1h-1h-1h-1h-1h-1h-1h-1h-2h-15h-14h-9h-3h-44v10v271v148v39.5v42t-1.5 38t-5 36t-10 27t-17 21.5t-24.5 9l58 1h115z" />
    <glyph glyph-name="m" unicode="m" horiz-adv-x="711" 
d="M282 217v2v7q0 5 0.5 10t0.5 9.5v11.5q-4 73 -16.5 118.5t-40.5 76.5q-29 32 -70 55q-1 -81 -2 -191q-1 -118 -1 -217q-1 -41 -1 -71v-20v-7l-116 1v7q1 8 1 20v71q1 98 2 217l2 217q0 42 1 71v20v2l-25 75q27 -12 94.5 -45.5t97.5 -49.5q76 -40 113 -82q12 -12 21 -24
q10 14 24 29q38 42 113 82q30 16 98 49.5t96 45.5l-26 -76v-2v-5v-20q0 -29 -1 -71q-1 -99 -2 -217t-1 -217q-1 -41 -1 -71v-20v-7l-116 1v7q1 8 1 20v71q1 99 2 217q1 121 2 194q-40 -23 -68 -54q-28 -30 -40.5 -73t-16.5 -109h1v-3v-7v-9.5v-10t-0.5 -9.5t-0.5 -10v-7v-3z
" />
    <glyph glyph-name="n" unicode="n" horiz-adv-x="513" 
d="M39 0v9v24v73v73v13v11v9v5v12v18v18v18v18v12v10v16q-1 22 0 210h-1l62 95q11 -6 18 -10q9 -5 23.5 -11.5t25.5 -12.5q3 -2 5 -3q72 -31 133 -66q30 -17 51 -35v47l63 91l56 -48q-2 -56 -2 -88v-11v-22.5v-20.5v-14v-5v-7v-10v-10v-27.5v-31v-31.5v-27v-10v-10v-12v-13
v-20.5v-20v-20v-20.5v-13v-11v-17q0 -23 0.5 -50.5t0.5 -49.5v-17v-6l-119 -1v258l-1 11q-5 42 -21 80t-40 61q-38 36 -111 65q-1 1 -28 11l1 -168v-4v-135v-73v-106h-116z" />
    <glyph glyph-name="o" unicode="o" horiz-adv-x="635" 
d="M252 8q-92 20 -151 99q-47 62 -63 147l-34 -28q4 34 17.5 107.5t19.5 91.5q1 3 2 5q15 62 48 109q57 83 151 102l-25 31q26 -6 60.5 -13.5t53.5 -12t36 -9.5q83 -24 137 -97q48 -65 63 -154l31 24q-4 -32 -18 -103t-20 -93q-16 -60 -47 -106l-12 -16q-1 0 -1 -1
q-55 -68 -137 -85l21 -23q-23 4 -68.5 12t-63.5 13zM294 540q-73 -1 -115 -62q-43 -62 -41 -153q2 -93 48 -154q47 -62 126 -62q71 0 112 60q43 61 41 153q-1 92 -47 154q-44 59 -117 64h-7z" />
    <glyph glyph-name="p" unicode="p" horiz-adv-x="535" 
d="M241 387q9 3 15 7q8 6 42.5 38.5t43.5 41.5q15 17 29 35q13 16 6 39h-52q-65 1 -119 1h-18h-10v-12v-74v-25v-9v-5v-12v-23q7 -1 14 -1q20 0 37 -1h12zM153 645h3h11h19h20q54 0 119 -1h118h21h18h11h4v-96q0 -36 -6 -57t-30 -53q-20 -24 -49 -53l-78 -68
q-4 -4 -12.5 -10.5t-32.5 -17.5t-46 -11h-1h-4h-12l-37 1h-1h-1h-1h-1l-2 1h-1h-1h-1h-1q1 -240 1 -280l-122 1l3 536v18t-0.5 18t-1.5 17.5t-3.5 16.5t-7.5 14.5t-11.5 11.5t-16.5 8t-23 4h64h92z" />
    <glyph glyph-name="q" unicode="q" horiz-adv-x="656" 
d="M188 358v-7v-14v-7.5t-0.5 -6.5t-0.5 -4.5v-2.5v-4v-15v-45v-45v-15v-3v-1q0 -2 1 -4v-12q1 -16 1 -35q1 -13 1 -28q98 15 150 67l-28 28l-30 29q-6 5 -10 9l-4 4l77 80l4 -4q4 -4 10 -9l1 -1l2 -2l1 -1l1 -1l1 -1l1 -1l1 -1l1 -1h1v-1l1 -1l1 -1h1v-1l1 -1h1v-1l1 -1
l1 -1h1v-1l1 -1h1l1 -1l1 -1v-1l1 -1h1l1 -1l1 -1l1 -1l1 -1l1 -1l1 -1q0 -1 1 -1l3 -3l2 -2l1 -1l2 21q2 33 3 39q0 13 0.5 29t0.5 29v10v7v13v18v21t0.5 20.5t0.5 18.5v12v10v6q-49 0 -84 -4.5t-58 -15.5t-37 -23.5t-21.5 -34.5t-10.5 -42.5t-4 -52.5zM514 643v-5v-14v-42
v-43v-14v-5v-5v-13v-17.5v-20.5v-21v-18v-13v-5v-1v-4v-10q-1 -13 -1 -29t-1 -29v-10v-4q-5 -68 -29 -126q1 -1 48 -40l86 -68l1 -119q-25 11 -44 23l-24 16l-1 1q-4 3 -9 6q-1 0 -1 1q-57 38 -114 86q-70 -78 -187 -95q-22 -4 -47 -4h-5h-13l-39 -1h-39l-13 -1h-5
q0 43 -1 86v3v3.5v4.5q-1 17 -2 36l-1 36v12q0 2 -1 3v1v3v5v15v45v45v15v6v1v2q0 2 1 5v14v14v7q1 5 0.5 13.5t-0.5 18.5t2 24q5 65 28 108.5t66 69t98.5 36.5t135.5 12h29h82z" />
    <glyph glyph-name="r" unicode="r" horiz-adv-x="703" 
d="M377 548h-52q-65 1 -119 1h-18h-10v-12v-74v-25v-9v-5v-12v-23l67 -1q7 3 11 6q8 6 42.5 38.5t43.5 41.5q15 17 29 35q13 16 6 39zM153 645h3h11h19h20q54 0 119 -1h118h21h18h11h4v-96q0 -36 -6 -57t-30 -53q-20 -24 -49 -53q-13 -13 -67 -59q17 -16 36 -35l34 -34
q7 -7 16 -17l16 -17q44 -45 80 -77q9 -8 20 -18t25.5 -22t22.5 -19l70 -55l1 -119q-25 11 -44 23q-29 19 -36 24q-66 46 -120 95q-62 55 -99 94q-8 9 -71 71q-44 44 -56 54l-5 5l-56 1q1 -239 1 -280l-122 1l3 536v18t-0.5 18t-1.5 17.5t-3.5 16.5t-7.5 14.5t-11.5 11.5
t-16.5 8t-23 4h64h92z" />
    <glyph glyph-name="s" unicode="s" 
d="M60 106h6h14h23h22h21.5h18.5q97 10 158.5 58t82.5 149h-109h-155h-29h-22h-14h-5v104q0 7 1 11q8 55 27.5 92.5t47.5 61.5t72 37.5t93.5 18t120.5 4.5l-1 -112q-84 3 -135.5 -9t-75 -35t-33.5 -61q13 -1 49 -1h60h155h28.5h22.5h14h5l-1 -112q-2 -40 -12.5 -78
t-32.5 -76t-53 -68.5t-79 -53t-107 -31.5q-20 -3 -48 -4h-6h-14h-23h-22h-22h-23h-14h-6v105z" />
    <glyph glyph-name="t" unicode="t" horiz-adv-x="677" 
d="M61 644h7h18h66h100.5h97.5h99h100h66h18h7v-107h-7h-18h-66h-141v-49q1 -91 1 -199v-198q0 -39 1 -66v-7.5v-5.5v-5v-6l-116 -1v7v5v5.5v7.5q-1 27 -1 65v199t-1 198v50h-140h-66h-18h-7v107z" />
    <glyph glyph-name="u" unicode="u" horiz-adv-x="562" 
d="M522 643v-7v-20v-70q0 -97 1 -213v-23v-1v-17v-86v-86q0 -41 1 -119l-107 -3v51v7v25q-71 -60 -179 -76q-22 -4 -54 -4h-115v10v271v148v39.5v42t-1.5 38t-5 36t-10 27t-17 21.5t-24.5 9l58 1h115v-19v-48v-147v-148v-48v-19v-9v-24v-74v-7q123 15 186 95q39 50 45 97
q1 8 2 14q-1 306 -1 308v20v7z" />
    <glyph glyph-name="v" unicode="v" 
d="M522 643v-4v-10v-38q0 -53 0.5 -115.5t0.5 -114.5v-38v-11v-3q0 -49 -16.5 -96.5t-49.5 -91t-89.5 -74.5t-129.5 -42q-22 -4 -54 -4h-115v10v271v148v39.5v42t-1.5 38t-5 36t-10 27t-17 21.5t-24.5 9l58 1h115v-19v-48v-147v-148v-48v-19v-9v-24v-74v-7q123 15 186 95
q39 50 45 97q1 10 2 17q1 9 0 12q0 8 -0.5 153t-0.5 153v11v3z" />
    <glyph glyph-name="w" unicode="w" horiz-adv-x="819" 
d="M152 645l4 -261q4 -43 20.5 -81t40.5 -61q38 -37 111 -66q3 -1 13 -6v17v7.5v6.5v6q0 1 1 7v20v59.5t1 59.5v19v12v14v19v21v41v13v11v8v9v24v27v27v24v17v6h120l-2 -260l2 -11q4 -43 20.5 -81t40.5 -61q38 -37 111 -67q1 0 28 -11v169v5q1 121 1 136v73l1 107h116v-9
v-25v-73v-74v-24l-1 -9v-5v-12v-37v-19v-17v-13v-10v-7v-9q0 -22 -1 -211l1 -1l-63 -94q-11 5 -19 9q-8 5 -22.5 12t-26.5 13q-2 2 -5 3q-72 32 -134 67q-30 17 -50 35q-1 -23 -1 -47h1l-28 -38q-2 -4 -5 -8l-32 -45l-125 78q-47 24 -67 35q-43 25 -71 56q-38 42 -65 107.5
t-30 138.5v9q-1 5 -1 9v7v2v4v9q0 13 0.5 28t0.5 28v9v6v7v8.5v10.5v19v6v6v7v12v12.5v12.5v12l-1 7v3h116z" />
    <glyph glyph-name="x" unicode="x" horiz-adv-x="655" 
d="M130 644h4h13h21.5h23.5h64.5h73.5h73.5h64.5h23h22h13h4v-1q41 1 82 1l-199 -296l-63 83l79 113h-1h-1h-1h-1h-1h-2h-1h-1h-1h-1h-1h-1h-1h-1h-1h-1h-1h-1h-1h-1h-1h-1h-1h-1h-1h-1h-1h-1h-1h-1h-1h-1h-1h-1h-1h-1h-1h-1h-1h-1h-1h-1h-1h-1h-1h-1h-1h-1h-1h-1h-1h-1h-1
h-1h-1h-1h-1h-1h-1h-1h-1h-1h-1h-1h-1h-1h-1h-1h-1h-1h-1h-1h-1h-1h-1h-1h-1h-1h-1h-1h-1h-1h-1h-1h-1h-1h-1h-1h-1h-1h-1h-1h-1h-1h-1h-1h-1h-1h-107l394 -544h-79v-1h-4h-14h-49q-32 0 -68.5 0.5t-78.5 0.5h-79h-69h-49h-13h-5h-71l200 295l62 -83l-79 -113h103h47h36h29
l-391 545h85z" />
    <glyph glyph-name="y" unicode="y" horiz-adv-x="717" 
d="M532 646l148 -1l-581 -765h-155l329 429l-265 336h154l191 -232z" />
    <glyph glyph-name="z" unicode="z" horiz-adv-x="652" 
d="M482 644h117l-69 -100l-306 -445h45.5h69.5h94l-69 99l54 79l197 -276l-77 -1v-1h-4h-13h-1h-6h-11h-27h-5q-32 0 -68.5 0.5t-78.5 0.5h-79h-69h-20h-13h-4h-12h-13h-5v1l-76 -1l379 544h-1h-1h-1h-1h-1h-1h-1h-1h-1h-1h-1h-1h-1h-1h-1h-1h-1h-1h-1h-1h-1h-1h-1h-1h-1h-1
h-1h-1h-1h-1h-1h-1h-1h-1h-2h-1h-1h-1h-1h-1h-1h-1h-1h-1h-1h-1h-1h-1h-1h-1h-1h-1h-1h-1h-1h-1h-1h-1h-1h-1h-1h-1h-1h-1h-1h-1h-1h-1h-1h-1h-1h-1h-1h-1h-1h-1h-1h-1h-1h-1h-1h-105l63 -92l-50 -78l-191 271h109v-1h16h20h138h138h13h1z" />
    <glyph glyph-name="braceleft" unicode="{" horiz-adv-x="828" 
d="M209 295l244 1l53 -94q-116 1 -231 1l-53 -99l396 -2l-205 375l-75 -136l-103 3l124 233l38 70l12 24q3 6 7 12l374 -682h-69v-1h-40h-7l-508 1v-1h-115l114 210z" />
    <glyph glyph-name="bar" unicode="|" horiz-adv-x="214" 
d="M175 762v-3v-8v-14.5v-16.5v-110q0 -153 0.5 -336t0.5 -335v-111v-16v-15v-8v-3h-86v3v8v15v16v111q0 152 -0.5 335t-0.5 335v111v16v15v8v3h86z" />
    <glyph glyph-name="braceright" unicode="}" horiz-adv-x="840" 
d="M642 389l-245 1l-53 94l232 -2l54 99l-399 4l205 -378l76 136l104 -3l-126 -233l-38 -71l-13 -24l-6 -12l-374 687h70v1q19 0 39 -1h8l510 -2v1h116l-115 -211z" />
    <glyph glyph-name="asciitilde" unicode="~" horiz-adv-x="503" 
d="M466 438v-3v-8q-1 -12 -1 -26v-25q-1 -2 -1 -4q1 -1 1 -2q-1 -18 -3 -30q-7 -39 -25 -68.5t-43 -46t-51 -25t-55 -9.5q0 1 -1 1q-29 0 -58 -1v3v8q0 11 -1 27q-1 38 -1 83q-1 47 -2 63q-28 -2 -46 -7.5t-32.5 -19.5t-21 -40t-6.5 -66l-76 1q1 48 7.5 78.5t22.5 56
t45.5 38.5t76.5 18q9 1 29 -1v1l56 1l4 -3v-8q1 -11 1 -27q1 -38 2 -84q0 -18 1 -60q59 11 87 46t33 91q0 6 1 13v13v12v8v4z" />
    <glyph glyph-name="quoteleft" unicode="&#x2018;" horiz-adv-x="172" 
d="M133 640q-65 -55 -51 -119q19 -1 30 -16q10 -13 7.5 -29t-15.5 -25.5t-29 -7t-25 15.5q-5 5 -7 12q-31 67 21 130q22 25 62 40q9 3 9 1z" />
    <glyph glyph-name="quoteright" unicode="&#x2019;" horiz-adv-x="237" 
d="M97 447q65 55 51 119q-19 1 -30 16q-10 14 -7.5 30t15.5 25.5t29 7t26 -16.5q3 -4 5 -9q33 -69 -21 -133q-21 -25 -61 -40q-9 -3 -9 -1q0 1 2 2z" />
    <glyph glyph-name="quotedblleft" unicode="&#x201c;" horiz-adv-x="368" 
d="M133 640q-65 -55 -51 -119q19 -1 30 -16q10 -13 7.5 -29t-15.5 -25.5t-29 -7t-25 15.5q-5 5 -7 12q-31 67 21 130q22 25 62 40q9 3 9 1zM329 640q-65 -55 -51 -119q20 -1 31 -16q10 -13 7.5 -29t-15.5 -25.5t-29 -7.5t-26 15q-3 5 -5 10q-34 69 19 133q22 25 62 40
q9 3 9 2t-2 -3z" />
    <glyph glyph-name="quotedblright" unicode="&#x201d;" horiz-adv-x="425" 
d="M287 449q64 56 50 120q-19 0 -30 15q-10 13 -8 29t15 26t29 7.5t26 -15.5q4 -5 6 -12q32 -66 -20 -130q-21 -26 -61 -41q-8 -3 -8 -1q-1 1 1 2zM93 447q64 55 50 119q-21 -1 -34 16q-10 13 -7.5 29t15.5 25q12 10 27.5 8t25.5 -13l5 -2q42 -74 -14 -142q-21 -27 -62 -41
q-7 -3 -8 -2q0 1 2 3z" />
    <glyph glyph-name="uni3000" unicode="&#x3000;" horiz-adv-x="1000" 
 />
    <glyph glyph-name="uniF8FE" unicode="&#xf8fe;" horiz-adv-x="300" 
 />
    </font>
</defs>
</svg>
